<svg width="132" height="43" viewBox="0 0 132 43" fill="none" xmlns="http://www.w3.org/2000/svg">
<g id="Logo / Turtl / White">
<g id="Logo / Turtl / White_2">
<path d="M0 0V9.05322H10.5667V42.1415H21.3026V9.05322H32.1487V0H0Z" fill="white"/>
<path d="M38.2387 14.093V29.0454C38.2387 29.9035 38.2928 30.7342 38.4336 31.4829C38.5722 32.2294 38.7941 32.8665 39.1833 33.4195C39.5439 33.9741 40.0739 34.3886 40.7121 34.6668C41.379 34.9433 42.2155 35.1082 43.2446 35.1082C44.2721 35.1082 45.1068 34.9702 45.7738 34.6668C46.4154 34.3617 46.942 33.9472 47.3042 33.4195C47.6647 32.8665 47.9171 32.2294 48.0557 31.4829C48.1926 30.7346 48.2505 29.9321 48.2505 29.0454V14.093H58.2061V30.9282C58.2061 33.2255 57.8152 35.1369 57.065 36.6876C56.2864 38.2384 55.2298 39.484 53.8942 40.3976C52.5316 41.3112 50.9471 41.977 49.1677 42.3915C47.3596 42.7791 45.4128 43 43.2717 43C41.1588 43 39.1833 42.806 37.3482 42.3915C35.513 41.977 33.9538 41.3399 32.6217 40.3976C31.2861 39.484 30.2299 38.2384 29.478 36.6876C28.6994 35.1369 28.3368 33.2255 28.3368 30.9282V14.093H38.2387Z" fill="white"/>
<path d="M74.2221 18.6615H74.3337C75.2801 16.9172 76.5311 15.6429 78.1156 14.8691C79.6731 14.0922 81.0087 13.8713 82.9554 13.8713L85.3185 14.0093V22.2617C84.4279 22.095 83.734 22.0391 83.067 21.9835C82.1207 21.928 81.2302 22.0391 80.3688 22.1502C79.0062 22.3711 78.5607 22.5091 77.6723 22.9527C76.7817 23.3958 76.0573 23.9774 75.5577 24.7261C75.0565 25.4726 74.6942 26.3593 74.5015 27.4109C74.3067 28.4356 74.1951 29.5702 74.1951 30.7615V42.0308H64.2683V14.0653H74.2221V18.6615Z" fill="white"/>
<path d="M92.3261 5.70388V14.0926H89.103V22.2626H92.3261V42.0573H102.284V22.2626H107.927V14.0926H102.284V5.70388H92.3261Z" fill="white"/>
<path d="M121.389 0.110249H111.432V42.0582H121.389V0.110249Z" fill="white"/>
<path d="M128.365 3.369H128.699C129.091 3.369 129.425 3.24936 129.425 2.91733C129.425 2.64598 129.213 2.46565 128.758 2.46565C128.577 2.46565 128.425 2.49428 128.365 2.49428V3.369ZM128.365 5.11846H127.637V2.0426C127.91 1.98192 128.304 1.95158 128.819 1.95158C129.394 1.95158 129.667 2.0426 129.879 2.16396C130.06 2.28361 130.182 2.52462 130.182 2.82631C130.182 3.15834 129.911 3.42968 129.545 3.55104V3.58138C129.848 3.70103 130 3.91341 130.121 4.33475C130.212 4.78814 130.273 4.99881 130.334 5.08812H129.576C129.486 4.96847 129.425 4.69712 129.334 4.33475C129.273 4.00272 129.091 3.85273 128.699 3.85273H128.365V5.11846ZM126.456 3.5207C126.456 4.87745 127.455 5.96455 128.849 5.96455C130.212 5.96455 131.212 4.87745 131.212 3.5207C131.212 2.16396 130.212 1.04823 128.849 1.04823C127.487 1.07643 126.456 2.16396 126.456 3.5207ZM132 3.5207C132 5.27015 130.637 6.62732 128.849 6.62732C127.092 6.62732 125.668 5.27058 125.668 3.5207C125.668 1.83193 127.061 0.444422 128.849 0.444422C130.637 0.444422 132 1.80159 132 3.5207Z" fill="white"/>
</g>
</g>
</svg>
