<svg width="125" height="41" viewBox="0 0 125 41" fill="none" xmlns="http://www.w3.org/2000/svg">
<path d="M20.1722 39.5786H10.0072V8.50326H0V0H30.4428V8.50326H20.1722V39.5786Z" fill="#00AFCB"/>
<path d="M36.21 13.2363V27.2786C36.21 28.0846 36.2628 28.865 36.3944 29.567C36.5259 30.269 36.7369 30.8674 37.1053 31.3873C37.4478 31.9073 37.9481 32.2973 38.5537 32.5575C39.1856 32.8176 39.9759 32.9734 40.9503 32.9734C41.9247 32.9734 42.7147 32.8435 43.3469 32.5575C43.9525 32.2714 44.4528 31.8814 44.7953 31.3873C45.1378 30.8674 45.3747 30.269 45.5062 29.567C45.6378 28.865 45.6906 28.1108 45.6906 27.2786V13.2363H55.1184V29.047C55.1184 31.2053 54.7497 32.9997 54.0387 34.4558C53.3013 35.912 52.3006 37.0822 51.0366 37.9403C49.7463 38.7985 48.245 39.4225 46.5597 39.8125C44.8478 40.1766 43.0044 40.3846 40.9769 40.3846C38.9753 40.3846 37.1056 40.2026 35.3675 39.8125C33.6294 39.4225 32.1547 38.8244 30.8906 37.9403C29.6266 37.0822 28.6259 35.912 27.9147 34.4558C27.1772 32.9997 26.835 31.2053 26.835 29.047V13.2363H36.21Z" fill="#00AFCB"/>
<path d="M70.2869 17.5268H70.3922C71.2875 15.8885 72.4725 14.6922 73.9738 13.9642C75.4484 13.236 76.7125 13.028 78.5559 13.028L80.7944 13.1579V20.9073C79.9516 20.7512 79.2934 20.6993 78.6613 20.6472C77.7659 20.595 76.9231 20.6993 76.1069 20.8033C74.8166 21.0113 74.395 21.1415 73.5525 21.5575C72.7097 21.9734 72.025 22.5196 71.5509 23.2216C71.0769 23.9237 70.7347 24.7559 70.5503 25.744C70.3659 26.7061 70.2606 27.7723 70.2606 28.8906V39.4743H60.8594V13.21H70.2872V17.5268H70.2869Z" fill="#00AFCB"/>
<path d="M96.8587 39.5005H87.4309V20.9073H84.3759V13.2363H87.4309V5.35697H96.8587V13.2363H102.205V20.9073H96.8587V39.5005Z" fill="#00AFCB"/>
<path d="M114.951 0.103992H105.523V39.5005H114.951V0.103992Z" fill="#00AFCB"/>
<path d="M125 3.30706C125 4.94995 123.709 6.2247 122.017 6.2247C120.353 6.2247 119.004 4.94995 119.004 3.30706C119.004 1.72065 120.324 0.41751 122.017 0.41751C123.709 0.41751 125 1.69226 125 3.30706ZM119.75 3.30706C119.75 4.58181 120.697 5.60167 122.017 5.60167C123.308 5.60167 124.254 4.58181 124.254 3.30706C124.254 2.03231 123.308 0.984065 122.017 0.984065C120.726 1.01245 119.75 2.03231 119.75 3.30706ZM121.558 4.80831H120.869V1.91907C121.127 1.86229 121.5 1.83421 121.988 1.83421C122.533 1.83421 122.791 1.91907 122.992 2.03262C123.164 2.14587 123.279 2.37268 123.279 2.65596C123.279 2.96762 123.021 3.22251 122.676 3.33576V3.36415C122.963 3.4774 123.107 3.67582 123.221 4.07234C123.307 4.49726 123.365 4.69568 123.422 4.78054H122.705C122.619 4.66729 122.562 4.4124 122.476 4.07234C122.418 3.76068 122.246 3.61904 121.873 3.61904H121.558V4.80831ZM121.558 3.16542H121.873C122.246 3.16542 122.562 3.05217 122.562 2.74051C122.562 2.48562 122.361 2.31559 121.93 2.31559C121.758 2.31559 121.615 2.34398 121.558 2.34398V3.16542Z" fill="#00AFCB"/>
</svg>
